<mxfile host="app.diagrams.net" modified="2024-03-01T05:47:05.545Z" agent="Mozilla/5.0 (Macintosh; Intel Mac OS X 10_15_7) AppleWebKit/605.1.15 (KHTML, like Gecko) Version/16.4 Safari/605.1.15" version="23.0.1" etag="yaZqyyJ51G68DIZM5o4U" type="github">
  <diagram name="第 1 页" id="qWvrkpXLxx0GC9WOg6ml">
    <mxGraphModel>
      <root>
        <mxCell id="0" />
        <mxCell id="1" parent="0" />
      </root>
    </mxGraphModel>
  </diagram>
</mxfile>
